<?xml version="1.0" encoding="UTF-8" standalone="no"?>
<!-- Created with Inkscape (http://www.inkscape.org/) -->
<svg xmlns:dc="http://purl.org/dc/elements/1.1/" xmlns:cc="http://creativecommons.org/ns#" xmlns:rdf="http://www.w3.org/1999/02/22-rdf-syntax-ns#" xmlns:svg="http://www.w3.org/2000/svg" xmlns="http://www.w3.org/2000/svg" xmlns:sodipodi="http://sodipodi.sourceforge.net/DTD/sodipodi-0.dtd" xmlns:inkscape="http://www.inkscape.org/namespaces/inkscape" width="819.01819" height="819.01819" id="svg2" sodipodi:version="0.32" inkscape:version="0.48.2 r9819" version="1.0" sodipodi:docname="AJAX.svg">
  <defs id="defs4"/>
  <sodipodi:namedview id="base" pagecolor="#ffffff" bordercolor="#666666" borderopacity="1.0" gridtolerance="10000" guidetolerance="10" objecttolerance="10" inkscape:pageopacity="0.0" inkscape:pageshadow="2" inkscape:zoom="0.94430669" inkscape:cx="409.50046" inkscape:cy="409.51785" inkscape:document-units="px" inkscape:current-layer="layer1" width="600px" height="600px" units="px" inkscape:window-width="1280" inkscape:window-height="968" inkscape:window-x="-4" inkscape:window-y="-4" showgrid="false" fit-margin-top="0" fit-margin-left="0" fit-margin-right="0" fit-margin-bottom="0" inkscape:window-maximized="0"/>
  <metadata id="metadata7">
    <rdf:RDF>
      <cc:Work rdf:about="">
        <dc:format>image/svg+xml</dc:format>
        <dc:type rdf:resource="http://purl.org/dc/dcmitype/StillImage"/>
      </cc:Work>
    </rdf:RDF>
  </metadata>
  <g inkscape:label="Layer 1" inkscape:groupmode="layer" id="layer1" transform="translate(0.73495513,0.73495773)">
    <path transform="matrix(0.707107,-0.707107,0.707107,0.707107,0,0)" style="color:#000000;fill:#ffffff;fill-opacity:1;fill-rule:nonzero;stroke:#000000;stroke-width:1.49999952;stroke-linecap:butt;stroke-linejoin:miter;stroke-miterlimit:4;stroke-opacity:1;stroke-dasharray:none;stroke-dashoffset:0;marker:none;visibility:visible;display:inline;overflow:visible" d="m -262.50039,278.08163 525.00016,0 c 20.77501,0 37.50002,16.72501 37.50002,37.50002 l 0,525.00016 c 0,20.775 -16.72501,37.50001 -37.50002,37.50001 l -525.00016,0 c -20.775,0 -37.50001,-16.72501 -37.50001,-37.50001 l 0,-525.00016 c 0,-20.77501 16.72501,-37.50002 37.50001,-37.50002 z" id="rect2777" inkscape:connector-curvature="0"/>
    <path transform="matrix(0.707107,-0.707107,0.707107,0.707107,0,0)" style="color:#000000;fill:#000000;fill-opacity:1;fill-rule:nonzero;stroke:none;stroke-width:0.8735441;marker:none;visibility:visible;display:inline;overflow:visible" d="m -262.51244,287.45663 525.00016,0 c 15.58126,0 28.12501,12.54376 28.12501,28.12501 l 0,525.00017 c 0,15.58125 -12.54375,28.12501 -28.12501,28.12501 l -525.00016,0 c -15.58126,0 -28.12501,-12.54376 -28.12501,-28.12501 l 0,-525.00017 c 0,-15.58125 12.54375,-28.12501 28.12501,-28.12501 z" id="rect4551" inkscape:connector-curvature="0"/>
    <path transform="matrix(0.707107,-0.707107,0.707107,0.707107,0,0)" style="color:#000000;fill:#ffffff;fill-opacity:1;fill-rule:nonzero;stroke:none;stroke-width:0.8735441;marker:none;visibility:visible;display:inline;overflow:visible" d="m -262.53253,303.08163 525.00018,0 c 6.925,0 12.5,5.57501 12.5,12.50001 l 0,525.00017 c 0,6.92501 -5.575,12.50001 -12.5,12.50001 l -525.00018,0 c -6.925,0 -12.5,-5.575 -12.5,-12.50001 l 0,-525.00017 c 0,-6.925 5.575,-12.50001 12.5,-12.50001 z" id="rect5438" inkscape:connector-curvature="0"/>
    <path transform="scale(1.012833,0.98733)" style="font-size:188.95762634px;font-style:normal;font-variant:normal;font-weight:normal;font-stretch:normal;text-align:center;line-height:125%;writing-mode:lr-tb;text-anchor:middle;fill:#000000;stroke:none;font-family:Roadgeek 2005 Series D" d="m 286.11885,325.20079 c -1e-4,12.72486 -1.92131,23.90519 -5.76364,33.54102 -3.84253,9.63589 -9.35436,17.22559 -16.53553,22.76914 -2.3951,2.26817 -5.1986,3.96833 -8.41048,5.10049 -3.21202,1.13217 -6.45569,1.82511 -9.73102,2.07884 l -7.17933,0 -38.54924,0 0,-126.60415 40.81549,0 c 3.15231,1.3e-4 5.89333,0.0953 8.22307,0.28544 2.32961,0.19042 4.4392,0.53738 6.32877,1.04086 1.88942,0.50374 3.58959,1.19668 5.10049,2.07884 1.51076,0.8824 3.14845,1.95209 4.91308,3.20907 6.67756,5.7974 11.81169,13.51397 15.4024,23.14973 3.59053,9.63596 5.38584,20.75285 5.38594,33.35072 l 0,0 z m -20.40774,0 c -9e-5,-8.56514 -0.91408,-16.18657 -2.74199,-22.86429 -1.82807,-6.67754 -4.31632,-11.65405 -7.46477,-14.92954 -1.63776,-1.51073 -3.52726,-2.76975 -5.6685,-3.77708 -2.14137,-1.00711 -4.53447,-1.51072 -7.17933,-1.51083 l -22.67399,0 0,86.16348 20.02716,0 c 3.27533,2e-5 6.01538,-0.37769 8.22018,-1.13312 2.20467,-0.7554 4.18932,-2.01538 5.95394,-3.77996 3.77893,-3.77897 6.64489,-8.97557 8.5979,-15.58981 1.95285,-6.61417 2.92931,-14.14044 2.9294,-22.57885 l 0,0 z m 47.90832,63.48949 0,-126.60415 74.64195,0 0,20.03292 -54.60903,0 0,30.98933 36.84812,0 0,20.40775 -36.84812,0 0,34.7664 58.5764,0 0,20.40775 -78.60932,0 z m 174.65664,0 -12.473,-35.52182 -39.48919,0 -12.47301,35.52182 -21.35345,0 43.65262,-126.60415 19.83686,0 43.65263,126.60415 -21.35346,0 z m -31.93504,-91.45715 -13.03812,35.52758 25.32083,0 -12.28271,-35.52758 z m 158.60839,27.96766 c -1e-4,12.72486 -1.92132,23.90519 -5.76365,33.54102 -3.84252,9.63589 -9.35435,17.22559 -16.53552,22.76914 -2.39511,2.26817 -5.1986,3.96833 -8.41048,5.10049 -3.21203,1.13217 -6.4557,1.82511 -9.73102,2.07884 l -7.17933,0 -38.54925,0 0,-126.60415 40.8155,0 c 3.15231,1.3e-4 5.89333,0.0953 8.22307,0.28544 2.32961,0.19042 4.4392,0.53738 6.32876,1.04086 1.88943,0.50374 3.58959,1.19668 5.1005,2.07884 1.51075,0.8824 3.14844,1.95209 4.91308,3.20907 6.67755,5.7974 11.81168,13.51397 15.4024,23.14973 3.59053,9.63596 5.38584,20.75285 5.38594,33.35072 l 0,0 z m -20.40775,0 c -8e-5,-8.56514 -0.91407,-16.18657 -2.74198,-22.86429 -1.82807,-6.67754 -4.31632,-11.65405 -7.46477,-14.92954 -1.63777,-1.51073 -3.52727,-2.76975 -5.6685,-3.77708 -2.14137,-1.00711 -4.53448,-1.51072 -7.17933,-1.51083 l -22.67399,0 0,86.16348 20.02715,0 c 3.27533,2e-5 6.01539,-0.37769 8.22019,-1.13312 2.20467,-0.7554 4.18931,-2.01538 5.95394,-3.77996 3.77893,-3.77897 6.64489,-8.97557 8.5979,-15.58981 1.95285,-6.61417 2.92931,-14.14044 2.92939,-22.57885 l 0,0 z" id="text6442" inkscape:connector-curvature="0"/>
    <path transform="scale(0.997098,1.00291)" style="font-size:186.02218628px;font-style:normal;font-variant:normal;font-weight:normal;font-stretch:normal;text-align:center;line-height:125%;writing-mode:lr-tb;text-anchor:middle;fill:#000000;stroke:none;font-family:Roadgeek 2005 Series D" d="m 268.92079,582.07153 0,-124.63736 73.4824,0 0,19.72171 -53.76069,0 0,30.50791 36.27569,0 0,20.09072 -36.27569,0 0,34.22631 57.66643,0 0,20.09071 -77.38814,0 z m 165.8009,0 -47.61823,-84.45593 0,84.45593 -19.72171,0 0,-124.63736 19.72171,0 45.38719,79.61918 0,-79.61918 19.72171,0 0,124.63736 -17.49067,0 z m 131.93792,-62.50318 c -1e-4,12.52718 -1.89147,23.53382 -5.67411,33.01996 -3.78283,9.4862 -9.20904,16.958 -16.27865,22.41542 -2.3579,2.23294 -5.11784,3.90669 -8.27982,5.02126 -3.16213,1.11458 -6.35541,1.79676 -9.57985,2.04654 l -7.0678,0 -37.95039,0 0,-124.63736 40.18143,0 c 3.10334,1.3e-4 5.80178,0.0938 8.09533,0.28101 2.29342,0.18746 4.37023,0.52903 6.23045,1.02469 1.86007,0.49591 3.53382,1.17809 5.02126,2.04654 1.48728,0.86869 3.09953,1.92176 4.83675,3.15922 6.57382,5.70733 11.62819,13.30403 15.16313,22.7901 3.53475,9.48626 5.30217,20.43046 5.30227,32.83262 l 0,0 z m -20.09072,0 c -8e-5,-8.43209 -0.89987,-15.93511 -2.69939,-22.50909 -1.79966,-6.57381 -4.24926,-11.47301 -7.3488,-14.69762 -1.61232,-1.48726 -3.47247,-2.72672 -5.58044,-3.7184 -2.1081,-0.99147 -4.46403,-1.48725 -7.0678,-1.48736 l -22.32175,0 0,84.82494 19.71603,0 c 3.22445,2e-5 5.92194,-0.37182 8.09249,-1.11552 2.17042,-0.74366 4.12423,-1.98407 5.86145,-3.72124 3.72022,-3.72026 6.54166,-8.83613 8.46432,-15.34762 1.92252,-6.51142 2.88381,-13.92077 2.88389,-22.22809 l 0,0 z" id="text6448" inkscape:connector-curvature="0"/>
  </g>
</svg>