<svg xmlns="http://www.w3.org/2000/svg" viewBox="0 0 16 16" width="10" height="10"><path fill="#bae0bd" d="M4.5,15.5V2.598C5.614,4.49,7.414,8.603,7.497,15.5H4.5z"/><path fill="#5e9c76" d="M5,4.716C5.913,6.867,6.869,10.225,6.988,15H5V4.716 M4,1c0,0,0,2.817,0,15h4C8,5.308,4,1,4,1L4,1z"/><path fill="#bae0bd" d="M6.504,15.5C6.622,7.575,9.548,3.394,11.332,1.575C10.615,3.904,9.551,8.519,9.502,15.5H6.504z"/><path fill="#5e9c76" d="M10.258,3.668C9.667,6.229,9.077,9.998,9.007,15H7.015C7.184,9.601,8.698,6.105,9.981,4.089 C10.073,3.943,10.166,3.803,10.258,3.668 M12.429,0C12.429,0,6,3.817,6,16h4C10,5.308,12.429,0,12.429,0L12.429,0z"/><path fill="#bae0bd" d="M9.505,15.5c0.133-6.014,2.65-9.377,4.304-10.946c-0.871,2.28-2.209,6.478-2.304,10.946H9.505z"/><path fill="#5e9c76" d="M12.5,6.832C11.816,9.06,11.146,11.954,11.021,15h-0.999C10.192,11.213,11.315,8.581,12.5,6.832 M15,3c0,0-6,3.22-6,13h3C12,9.326,15,3,15,3L15,3z"/><g><path fill="#bae0bd" d="M11.507,15.5c0.136-4.716,2.202-5.788,3.52-5.988c-0.6,1.012-1.436,2.952-1.52,5.988H11.507z"/><path fill="#5e9c76" d="M14.027,10.405c-0.457,1.081-0.889,2.599-1,4.595H12.03C12.207,12.233,13.118,10.969,14.027,10.405 M15.564,8.971C14.347,8.971,11,9.557,11,16h3c0-4.893,2-7,2-7S15.835,8.971,15.564,8.971L15.564,8.971z"/></g><g><path fill="#bae0bd" d="M3.498,15.5c-0.054-5.056-0.921-8.075-1.739-9.807C3.355,7.1,5.379,9.967,5.495,15.5H3.498z"/><path fill="#5e9c76" d="M3.171,8.202C4.079,9.723,4.842,11.905,4.978,15H3.989C3.928,12.108,3.601,9.89,3.171,8.202 M0,4 c0,0,3,2.22,3,12h3C6,6.054,0,4,0,4L0,4z"/></g></svg>