<?xml version="1.0" encoding="UTF-8" standalone="no"?>
<!DOCTYPE svg PUBLIC "-//W3C//DTD SVG 1.1//EN" "http://www.w3.org/Graphics/SVG/1.1/DTD/svg11.dtd">
<svg version="1.1" xmlns="http://www.w3.org/2000/svg" xmlns:xlink="http://www.w3.org/1999/xlink" preserveAspectRatio="xMidYMid meet" viewBox="0 0 15 10" width="15" height="10"><defs><path d="M13.87 1.28C14.17 0.99 14.17 0.51 13.87 0.22C13.58 -0.07 13.1 -0.07 12.81 0.22C12.5 0.53 10.92 2.11 8.09 4.94C5.26 2.11 3.69 0.53 3.38 0.22C3.08 -0.07 2.61 -0.07 2.32 0.22C2.02 0.51 2.02 0.99 2.32 1.28C2.63 1.6 4.2 3.17 7.03 6C4.2 8.83 2.63 10.4 2.32 10.72C2.02 11.01 2.02 11.49 2.32 11.78C2.46 11.93 2.65 12 2.85 12C3.04 12 3.23 11.93 3.38 11.78C3.69 11.47 5.26 9.89 8.09 7.06C10.92 9.89 12.5 11.47 12.81 11.78C12.96 11.93 13.15 12 13.34 12C13.53 12 13.73 11.93 13.87 11.78C14.17 11.49 14.17 11.01 13.87 10.72C13.56 10.4 11.99 8.83 9.15 6C11.99 3.17 13.56 1.6 13.87 1.28Z" id="a4Ml3r7Ps"></path><path d="M0 0L16.27 0L16.27 12L0 12L0 0Z" id="d1LVKzUQoV"></path></defs><g><g><g><use xlink:href="#a4Ml3r7Ps" opacity="1" fill="#ea1717" fill-opacity="1"></use></g><g><use xlink:href="#d1LVKzUQoV" opacity="1" fill="#ea1717" fill-opacity="0"></use></g></g></g></svg>