<?xml version="1.0" encoding="UTF-8" standalone="no"?>
<!DOCTYPE svg PUBLIC "-//W3C//DTD SVG 1.1//EN" "http://www.w3.org/Graphics/SVG/1.1/DTD/svg11.dtd">
<svg version="1.1" xmlns="http://www.w3.org/2000/svg" xmlns:xlink="http://www.w3.org/1999/xlink" preserveAspectRatio="xMidYMid meet" viewBox="0 0 29 10" width="29" height="10"><defs><path d="M13.91 1.07C14.16 0.82 14.16 0.43 13.91 0.18C13.67 -0.06 13.27 -0.06 13.03 0.18C12.77 0.45 11.46 1.76 9.1 4.12C6.74 1.76 5.43 0.45 5.16 0.18C4.92 -0.06 4.52 -0.06 4.28 0.18C4.04 0.43 4.04 0.82 4.28 1.07C4.54 1.33 5.85 2.64 8.21 5C5.85 7.36 4.54 8.67 4.28 8.93C4.04 9.18 4.04 9.57 4.28 9.82C4.4 9.94 4.56 10 4.72 10C4.88 10 5.04 9.94 5.16 9.82C5.43 9.55 6.74 8.24 9.1 5.88C11.46 8.24 12.77 9.55 13.03 9.82C13.15 9.94 13.31 10 13.47 10C13.63 10 13.79 9.94 13.91 9.82C14.16 9.57 14.16 9.18 13.91 8.93C13.65 8.67 12.34 7.36 9.98 5C12.34 2.64 13.65 1.33 13.91 1.07Z" id="d8lheekuh"></path><path d="M0 0L29 0L29 10L0 10L0 0Z" id="a36oi2ZLe1"></path><path d="M27.96 1.07C28.2 0.82 28.2 0.43 27.96 0.18C27.71 -0.06 27.32 -0.06 27.07 0.18C26.81 0.45 25.5 1.76 23.14 4.12C20.78 1.76 19.47 0.45 19.21 0.18C18.97 -0.06 18.57 -0.06 18.33 0.18C18.08 0.43 18.08 0.82 18.33 1.07C18.59 1.33 19.9 2.64 22.26 5C19.9 7.36 18.59 8.67 18.33 8.93C18.08 9.18 18.08 9.57 18.33 9.82C18.45 9.94 18.61 10 18.77 10C18.93 10 19.09 9.94 19.21 9.82C19.47 9.55 20.78 8.24 23.14 5.88C25.5 8.24 26.81 9.55 27.07 9.82C27.2 9.94 27.36 10 27.52 10C27.68 10 27.84 9.94 27.96 9.82C28.2 9.57 28.2 9.18 27.96 8.93C27.7 8.67 26.39 7.36 24.03 5C26.39 2.64 27.7 1.33 27.96 1.07Z" id="f3xBgbCZo"></path></defs><g><g><g><use xlink:href="#d8lheekuh" opacity="1" fill="#ea1717" fill-opacity="1"></use></g><g><use xlink:href="#a36oi2ZLe1" opacity="1" fill="#ea1616" fill-opacity="0"></use></g><g><use xlink:href="#f3xBgbCZo" opacity="1" fill="#ea1717" fill-opacity="1"></use></g></g></g></svg>