<?xml version="1.0" encoding="UTF-8" standalone="no"?>
<!DOCTYPE svg PUBLIC "-//W3C//DTD SVG 1.1//EN" "http://www.w3.org/Graphics/SVG/1.1/DTD/svg11.dtd">
<svg version="1.1" xmlns="http://www.w3.org/2000/svg" xmlns:xlink="http://www.w3.org/1999/xlink" preserveAspectRatio="xMidYMid meet" viewBox="0 0 29 10" width="29" height="10"><defs><path d="M13.81 1.07C13.96 0.82 13.96 0.43 13.81 0.18C13.66 -0.06 13.41 -0.06 13.26 0.18C13.1 0.45 12.29 1.76 10.83 4.12C9.38 1.76 8.57 0.45 8.41 0.18C8.26 -0.06 8.01 -0.06 7.86 0.18C7.71 0.43 7.71 0.82 7.86 1.07C8.02 1.33 8.83 2.64 10.29 5C8.83 7.36 8.02 8.67 7.86 8.93C7.71 9.18 7.71 9.57 7.86 9.82C7.94 9.94 8.03 10 8.13 10C8.23 10 8.33 9.94 8.41 9.82C8.57 9.55 9.38 8.24 10.83 5.88C12.29 8.24 13.1 9.55 13.26 9.82C13.34 9.94 13.44 10 13.54 10C13.63 10 13.73 9.94 13.81 9.82C13.96 9.57 13.96 9.18 13.81 8.93C13.65 8.67 12.84 7.36 11.38 5C12.84 2.64 13.65 1.33 13.81 1.07Z" id="ggIi621Bc"></path><path d="M0 0L27.95 0L27.95 10L0 10L0 0Z" id="ayOWMDJqv"></path><path d="M27.19 1.07C27.34 0.82 27.34 0.43 27.19 0.18C27.04 -0.06 26.79 -0.06 26.64 0.18C26.48 0.45 25.67 1.76 24.21 4.12C22.76 1.76 21.95 0.45 21.78 0.18C21.63 -0.06 21.39 -0.06 21.24 0.18C21.09 0.43 21.09 0.82 21.24 1.07C21.4 1.33 22.21 2.64 23.67 5C22.21 7.36 21.4 8.67 21.24 8.93C21.09 9.18 21.09 9.57 21.24 9.82C21.31 9.94 21.41 10 21.51 10C21.61 10 21.71 9.94 21.78 9.82C21.95 9.55 22.76 8.24 24.21 5.88C25.67 8.24 26.48 9.55 26.64 9.82C26.72 9.94 26.82 10 26.91 10C27.01 10 27.11 9.94 27.19 9.82C27.34 9.57 27.34 9.18 27.19 8.93C27.03 8.67 26.22 7.36 24.76 5C26.22 2.64 27.03 1.33 27.19 1.07Z" id="c6Q1PUEVN"></path></defs><g><g><g><use xlink:href="#ggIi621Bc" opacity="1" fill="#ea1717" fill-opacity="1"></use></g><g><use xlink:href="#ayOWMDJqv" opacity="1" fill="#ea1616" fill-opacity="0"></use></g><g><use xlink:href="#c6Q1PUEVN" opacity="1" fill="#ea1717" fill-opacity="1"></use></g></g></g></svg>