<?xml version="1.0" encoding="UTF-8" standalone="no"?>
<!DOCTYPE svg PUBLIC "-//W3C//DTD SVG 1.1//EN" "http://www.w3.org/Graphics/SVG/1.1/DTD/svg11.dtd">
<svg version="1.1" xmlns="http://www.w3.org/2000/svg" xmlns:xlink="http://www.w3.org/1999/xlink" preserveAspectRatio="xMidYMid meet" viewBox="0 0 640 640" width="640" height="640"><defs><path d="M19.79 6.21L20.06 6.21L22.82 3.66L22.82 1.54L25.71 1.54L25.71 4.21L25.71 4.29L25.7 4.38L25.68 4.47L25.66 4.55L25.63 4.63L25.6 4.71L25.56 4.79L25.51 4.87L25.46 4.94L25.41 5.01L25.35 5.08L25.28 5.14L22.68 7.54L25.28 9.93L25.35 10L25.41 10.07L25.46 10.14L25.51 10.21L25.56 10.29L25.6 10.36L25.63 10.44L25.66 10.53L25.68 10.61L25.7 10.7L25.71 10.78L25.71 10.87L25.71 13.54L22.82 13.54L22.82 11.41L20.06 8.87L19.79 8.87L17.03 11.41L17.03 13.54L14.14 13.54L14.14 10.87L14.14 10.78L14.15 10.7L14.17 10.61L14.19 10.53L14.22 10.44L14.25 10.36L14.29 10.29L14.34 10.21L14.39 10.14L14.44 10.07L14.5 10L14.57 9.93L17.17 7.54L14.57 5.14L14.5 5.08L14.44 5.01L14.39 4.94L14.34 4.87L14.29 4.79L14.25 4.71L14.22 4.63L14.19 4.55L14.17 4.47L14.15 4.38L14.14 4.29L14.14 4.21L14.14 1.54L17.03 1.54L17.03 3.66L19.79 6.21ZM5.65 6.21L5.92 6.21L8.68 3.66L8.68 1.54L11.57 1.54L11.57 4.21L11.57 4.29L11.56 4.38L11.54 4.47L11.52 4.55L11.49 4.63L11.46 4.71L11.42 4.79L11.37 4.87L11.32 4.94L11.27 5.01L11.21 5.08L11.14 5.14L8.54 7.54L11.14 9.93L11.21 10L11.27 10.07L11.32 10.14L11.37 10.21L11.42 10.29L11.46 10.36L11.49 10.44L11.52 10.53L11.54 10.61L11.56 10.7L11.57 10.78L11.57 10.87L11.57 13.54L8.68 13.54L8.68 11.41L5.92 8.87L5.65 8.87L2.89 11.41L2.89 13.54L0 13.54L0 10.87L0 10.78L0.01 10.7L0.03 10.61L0.05 10.53L0.08 10.44L0.11 10.36L0.15 10.29L0.2 10.21L0.25 10.14L0.3 10.07L0.36 10L0.43 9.93L3.03 7.54L0.43 5.14L0.36 5.08L0.3 5.01L0.25 4.94L0.2 4.87L0.15 4.79L0.11 4.71L0.08 4.63L0.05 4.55L0.03 4.47L0.01 4.38L0 4.29L0 4.21L0 1.54L2.89 1.54L2.89 3.66L5.65 6.21Z" id="ahUAadzhz"></path></defs><g><g><g><use xlink:href="#ahUAadzhz" opacity="1" fill="#eb384a" fill-opacity="1"></use><g><use xlink:href="#ahUAadzhz" opacity="1" fill-opacity="0" stroke="#000000" stroke-width="8" stroke-opacity="0"></use></g></g><path></path><path></path><path></path><path></path><path></path></g></g></svg>